<svg width="36" height="36" viewBox="0 0 36 36" fill="none" xmlns="http://www.w3.org/2000/svg">
<g clip-path="url(#clip0_11_147)">
<path fill-rule="evenodd" clip-rule="evenodd" d="M18 4.08857C18 1.90152 16.2271 0.12857 14.04 0.12857H3.96C1.77295 0.12857 0 1.90152 0 4.08857V14.1686C0 16.3556 1.77295 18.1285 3.96 18.1285H14.04C16.2271 18.1285 18 19.9015 18 22.0885V31.9115C18 34.0985 19.773 35.8715 21.96 35.8715H32.04C34.227 35.8715 36 34.0985 36 31.9115V21.8315C36 19.6443 34.227 17.8714 32.04 17.8714H21.96C19.773 17.8714 18 16.0985 18 13.9114V4.08857ZM31.9115 18C34.0985 18 35.8715 16.2271 35.8715 14.04V3.96C35.8715 1.77295 34.0985 5.36209e-07 31.9115 4.40611e-07L21.8315 0C19.6443 -9.55989e-08 17.8714 1.77295 17.8714 3.96V14.04C17.8714 16.2271 16.0985 18 13.9114 18H4.08857C1.90152 18 0.128567 19.773 0.128567 21.96L0.128566 32.04C0.128566 34.227 1.90152 36 4.08857 36H14.1686C16.3556 36 18.1285 34.227 18.1285 32.04V21.96C18.1285 19.773 19.9015 18 22.0885 18H31.9115Z" fill="#797979"/>
<path d="M14.3817 15.86H12.5737L16.7497 5.14H19.2297L23.4057 15.86H21.5337L20.4457 13.076H15.4697L14.3817 15.86ZM17.1977 8.692L16.0777 11.524H19.8377L18.7177 8.692L18.0297 6.708H17.9017L17.1977 8.692Z" fill="#E6E6E6"/>
<path d="M15.2803 33.3358H13.5523V22.6158H15.4083L19.4723 28.7598L20.6083 30.4718H20.7362V22.6158H22.4643V33.3358H20.6083L16.5603 27.2878L15.3923 25.5438H15.2803V33.3358Z" fill="#E6E6E6"/>
</g>
<defs>
<clipPath id="clip0_11_147">
<rect width="36" height="36" fill="white"/>
</clipPath>
</defs>
</svg>
